<mxfile host="app.diagrams.net" agent="Mozilla/5.0 (Windows NT 10.0; Win64; x64) AppleWebKit/537.36 (KHTML, like Gecko) Chrome/129.0.0.0 Safari/537.36" version="24.7.17">
  <diagram name="PÃ¡gina-1" id="YYdyQ29SrMNit_J2RMQb">
    <mxGraphModel dx="1257" dy="726" grid="1" gridSize="10" guides="1" tooltips="1" connect="1" arrows="1" fold="1" page="1" pageScale="1" pageWidth="827" pageHeight="1169" math="0" shadow="0">
      <root>
        <mxCell id="0" />
        <mxCell id="1" parent="0" />
        <mxCell id="qbju_2fscivjp48ing6j-22" value="Registro de usuario" style="swimlane;whiteSpace=wrap;html=1;" parent="1" vertex="1">
          <mxGeometry x="880" y="60" width="710" height="420" as="geometry" />
        </mxCell>
        <mxCell id="qbju_2fscivjp48ing6j-20" value="Web" style="rounded=0;whiteSpace=wrap;html=1;" parent="qbju_2fscivjp48ing6j-22" vertex="1">
          <mxGeometry x="310" y="220" width="120" height="60" as="geometry" />
        </mxCell>
        <mxCell id="qbju_2fscivjp48ing6j-17" value="Usuario" style="shape=umlActor;verticalLabelPosition=bottom;verticalAlign=top;html=1;outlineConnect=0;" parent="qbju_2fscivjp48ing6j-22" vertex="1">
          <mxGeometry x="50" y="220" width="30" height="60" as="geometry" />
        </mxCell>
        <mxCell id="qbju_2fscivjp48ing6j-23" value="" style="endArrow=none;html=1;rounded=0;" parent="qbju_2fscivjp48ing6j-22" source="qbju_2fscivjp48ing6j-17" target="qbju_2fscivjp48ing6j-20" edge="1">
          <mxGeometry width="50" height="50" relative="1" as="geometry">
            <mxPoint x="300" y="220" as="sourcePoint" />
            <mxPoint x="350" y="170" as="targetPoint" />
          </mxGeometry>
        </mxCell>
        <mxCell id="qbju_2fscivjp48ing6j-26" value="" style="endArrow=classic;html=1;rounded=0;" parent="qbju_2fscivjp48ing6j-22" edge="1">
          <mxGeometry width="50" height="50" relative="1" as="geometry">
            <mxPoint x="120" y="230" as="sourcePoint" />
            <mxPoint x="210" y="230" as="targetPoint" />
          </mxGeometry>
        </mxCell>
        <mxCell id="qbju_2fscivjp48ing6j-28" value="1:Seleccionar registrarse para crear cuenta" style="edgeLabel;html=1;align=center;verticalAlign=middle;resizable=0;points=[];" parent="qbju_2fscivjp48ing6j-26" vertex="1" connectable="0">
          <mxGeometry x="-0.0222" y="3" relative="1" as="geometry">
            <mxPoint x="26" y="-7" as="offset" />
          </mxGeometry>
        </mxCell>
        <mxCell id="qbju_2fscivjp48ing6j-21" value="Base de datos" style="rounded=0;whiteSpace=wrap;html=1;" parent="qbju_2fscivjp48ing6j-22" vertex="1">
          <mxGeometry x="530" y="320" width="120" height="60" as="geometry" />
        </mxCell>
        <mxCell id="qbju_2fscivjp48ing6j-18" value="API" style="rounded=0;whiteSpace=wrap;html=1;" parent="qbju_2fscivjp48ing6j-22" vertex="1">
          <mxGeometry x="510" y="70" width="120" height="60" as="geometry" />
        </mxCell>
        <mxCell id="qbju_2fscivjp48ing6j-29" value="" style="endArrow=classic;html=1;rounded=0;" parent="qbju_2fscivjp48ing6j-22" edge="1">
          <mxGeometry width="50" height="50" relative="1" as="geometry">
            <mxPoint x="230" y="270" as="sourcePoint" />
            <mxPoint x="140" y="270" as="targetPoint" />
          </mxGeometry>
        </mxCell>
        <mxCell id="qbju_2fscivjp48ing6j-30" value="1.1:Pide rellenar formulario para registrarse" style="edgeLabel;html=1;align=center;verticalAlign=middle;resizable=0;points=[];" parent="qbju_2fscivjp48ing6j-29" vertex="1" connectable="0">
          <mxGeometry x="-0.0222" y="3" relative="1" as="geometry">
            <mxPoint x="16" y="7" as="offset" />
          </mxGeometry>
        </mxCell>
        <mxCell id="qbju_2fscivjp48ing6j-31" value="" style="endArrow=classic;html=1;rounded=0;" parent="qbju_2fscivjp48ing6j-22" edge="1">
          <mxGeometry width="50" height="50" relative="1" as="geometry">
            <mxPoint x="110" y="199.5" as="sourcePoint" />
            <mxPoint x="240" y="200" as="targetPoint" />
          </mxGeometry>
        </mxCell>
        <mxCell id="qbju_2fscivjp48ing6j-32" value="2:Rellena Formulario" style="edgeLabel;html=1;align=center;verticalAlign=middle;resizable=0;points=[];" parent="qbju_2fscivjp48ing6j-31" vertex="1" connectable="0">
          <mxGeometry x="-0.0222" y="3" relative="1" as="geometry">
            <mxPoint x="26" y="-7" as="offset" />
          </mxGeometry>
        </mxCell>
        <mxCell id="qbju_2fscivjp48ing6j-33" value="" style="endArrow=none;html=1;rounded=0;" parent="qbju_2fscivjp48ing6j-22" target="qbju_2fscivjp48ing6j-18" edge="1">
          <mxGeometry width="50" height="50" relative="1" as="geometry">
            <mxPoint x="430" y="220" as="sourcePoint" />
            <mxPoint x="490" y="150" as="targetPoint" />
          </mxGeometry>
        </mxCell>
        <mxCell id="qbju_2fscivjp48ing6j-34" value="" style="endArrow=classic;html=1;rounded=0;" parent="qbju_2fscivjp48ing6j-22" edge="1">
          <mxGeometry width="50" height="50" relative="1" as="geometry">
            <mxPoint x="430" y="200" as="sourcePoint" />
            <mxPoint x="500" y="130" as="targetPoint" />
          </mxGeometry>
        </mxCell>
        <mxCell id="qbju_2fscivjp48ing6j-35" value="2.1:Enviar datos de Formulario" style="edgeLabel;html=1;align=center;verticalAlign=middle;resizable=0;points=[];rotation=-45;" parent="qbju_2fscivjp48ing6j-34" vertex="1" connectable="0">
          <mxGeometry x="-0.0222" y="3" relative="1" as="geometry">
            <mxPoint x="-12" y="-4" as="offset" />
          </mxGeometry>
        </mxCell>
        <mxCell id="qbju_2fscivjp48ing6j-36" value="" style="endArrow=none;html=1;rounded=0;" parent="qbju_2fscivjp48ing6j-22" source="qbju_2fscivjp48ing6j-21" target="qbju_2fscivjp48ing6j-18" edge="1">
          <mxGeometry width="50" height="50" relative="1" as="geometry">
            <mxPoint x="590" y="210" as="sourcePoint" />
            <mxPoint x="695" y="120" as="targetPoint" />
          </mxGeometry>
        </mxCell>
        <mxCell id="qbju_2fscivjp48ing6j-39" value="" style="endArrow=classic;html=1;rounded=0;" parent="qbju_2fscivjp48ing6j-22" edge="1">
          <mxGeometry width="50" height="50" relative="1" as="geometry">
            <mxPoint x="540" y="160" as="sourcePoint" />
            <mxPoint x="450" y="240" as="targetPoint" />
          </mxGeometry>
        </mxCell>
        <mxCell id="qbju_2fscivjp48ing6j-40" value="2.3:Enviar respuesta acerca del registro" style="edgeLabel;html=1;align=center;verticalAlign=middle;resizable=0;points=[];rotation=-45;" parent="qbju_2fscivjp48ing6j-39" vertex="1" connectable="0">
          <mxGeometry x="-0.0222" y="3" relative="1" as="geometry">
            <mxPoint x="-8" y="28" as="offset" />
          </mxGeometry>
        </mxCell>
        <mxCell id="qbju_2fscivjp48ing6j-41" value="" style="endArrow=classic;html=1;rounded=0;" parent="qbju_2fscivjp48ing6j-22" edge="1">
          <mxGeometry width="50" height="50" relative="1" as="geometry">
            <mxPoint x="260" y="300" as="sourcePoint" />
            <mxPoint x="140" y="300" as="targetPoint" />
          </mxGeometry>
        </mxCell>
        <mxCell id="qbju_2fscivjp48ing6j-42" value="2.4:Notificar acerca del registro" style="edgeLabel;html=1;align=center;verticalAlign=middle;resizable=0;points=[];" parent="qbju_2fscivjp48ing6j-41" vertex="1" connectable="0">
          <mxGeometry x="-0.0222" y="3" relative="1" as="geometry">
            <mxPoint x="16" y="17" as="offset" />
          </mxGeometry>
        </mxCell>
        <mxCell id="qbju_2fscivjp48ing6j-37" value="" style="endArrow=classic;html=1;rounded=0;" parent="1" edge="1">
          <mxGeometry width="50" height="50" relative="1" as="geometry">
            <mxPoint x="1460" y="210" as="sourcePoint" />
            <mxPoint x="1480" y="350" as="targetPoint" />
          </mxGeometry>
        </mxCell>
        <mxCell id="qbju_2fscivjp48ing6j-38" value="2.2:Guarda o verifica datos" style="edgeLabel;html=1;align=center;verticalAlign=middle;resizable=0;points=[];rotation=75;" parent="qbju_2fscivjp48ing6j-37" vertex="1" connectable="0">
          <mxGeometry x="-0.0222" y="3" relative="1" as="geometry">
            <mxPoint x="17" y="2" as="offset" />
          </mxGeometry>
        </mxCell>
        <mxCell id="qbju_2fscivjp48ing6j-43" value="Inicio Sesion" style="swimlane;whiteSpace=wrap;html=1;" parent="1" vertex="1">
          <mxGeometry x="40" y="50" width="710" height="420" as="geometry" />
        </mxCell>
        <mxCell id="qbju_2fscivjp48ing6j-44" value="Web" style="rounded=0;whiteSpace=wrap;html=1;" parent="qbju_2fscivjp48ing6j-43" vertex="1">
          <mxGeometry x="310" y="220" width="120" height="60" as="geometry" />
        </mxCell>
        <mxCell id="qbju_2fscivjp48ing6j-45" value="Usuario" style="shape=umlActor;verticalLabelPosition=bottom;verticalAlign=top;html=1;outlineConnect=0;" parent="qbju_2fscivjp48ing6j-43" vertex="1">
          <mxGeometry x="50" y="220" width="30" height="60" as="geometry" />
        </mxCell>
        <mxCell id="qbju_2fscivjp48ing6j-46" value="" style="endArrow=none;html=1;rounded=0;" parent="qbju_2fscivjp48ing6j-43" source="qbju_2fscivjp48ing6j-45" target="qbju_2fscivjp48ing6j-44" edge="1">
          <mxGeometry width="50" height="50" relative="1" as="geometry">
            <mxPoint x="300" y="220" as="sourcePoint" />
            <mxPoint x="350" y="170" as="targetPoint" />
          </mxGeometry>
        </mxCell>
        <mxCell id="qbju_2fscivjp48ing6j-47" value="" style="endArrow=classic;html=1;rounded=0;" parent="qbju_2fscivjp48ing6j-43" edge="1">
          <mxGeometry width="50" height="50" relative="1" as="geometry">
            <mxPoint x="120" y="230" as="sourcePoint" />
            <mxPoint x="210" y="230" as="targetPoint" />
          </mxGeometry>
        </mxCell>
        <mxCell id="qbju_2fscivjp48ing6j-48" value="1:Ingresa Inicio Sesion" style="edgeLabel;html=1;align=center;verticalAlign=middle;resizable=0;points=[];" parent="qbju_2fscivjp48ing6j-47" vertex="1" connectable="0">
          <mxGeometry x="-0.0222" y="3" relative="1" as="geometry">
            <mxPoint x="26" y="-7" as="offset" />
          </mxGeometry>
        </mxCell>
        <mxCell id="qbju_2fscivjp48ing6j-49" value="Base de datos" style="rounded=0;whiteSpace=wrap;html=1;" parent="qbju_2fscivjp48ing6j-43" vertex="1">
          <mxGeometry x="530" y="320" width="120" height="60" as="geometry" />
        </mxCell>
        <mxCell id="qbju_2fscivjp48ing6j-50" value="API" style="rounded=0;whiteSpace=wrap;html=1;" parent="qbju_2fscivjp48ing6j-43" vertex="1">
          <mxGeometry x="510" y="40" width="120" height="60" as="geometry" />
        </mxCell>
        <mxCell id="qbju_2fscivjp48ing6j-51" value="" style="endArrow=classic;html=1;rounded=0;" parent="qbju_2fscivjp48ing6j-43" edge="1">
          <mxGeometry width="50" height="50" relative="1" as="geometry">
            <mxPoint x="230" y="270" as="sourcePoint" />
            <mxPoint x="140" y="270" as="targetPoint" />
          </mxGeometry>
        </mxCell>
        <mxCell id="qbju_2fscivjp48ing6j-52" value="1.1:Pide rellenar formulario para Iniciar Sesion" style="edgeLabel;html=1;align=center;verticalAlign=middle;resizable=0;points=[];" parent="qbju_2fscivjp48ing6j-51" vertex="1" connectable="0">
          <mxGeometry x="-0.0222" y="3" relative="1" as="geometry">
            <mxPoint x="16" y="7" as="offset" />
          </mxGeometry>
        </mxCell>
        <mxCell id="qbju_2fscivjp48ing6j-53" value="" style="endArrow=classic;html=1;rounded=0;" parent="qbju_2fscivjp48ing6j-43" edge="1">
          <mxGeometry width="50" height="50" relative="1" as="geometry">
            <mxPoint x="110" y="199.5" as="sourcePoint" />
            <mxPoint x="240" y="200" as="targetPoint" />
          </mxGeometry>
        </mxCell>
        <mxCell id="qbju_2fscivjp48ing6j-54" value="2:Rellena Formulario" style="edgeLabel;html=1;align=center;verticalAlign=middle;resizable=0;points=[];" parent="qbju_2fscivjp48ing6j-53" vertex="1" connectable="0">
          <mxGeometry x="-0.0222" y="3" relative="1" as="geometry">
            <mxPoint x="26" y="-7" as="offset" />
          </mxGeometry>
        </mxCell>
        <mxCell id="qbju_2fscivjp48ing6j-55" value="" style="endArrow=none;html=1;rounded=0;" parent="qbju_2fscivjp48ing6j-43" target="qbju_2fscivjp48ing6j-50" edge="1">
          <mxGeometry width="50" height="50" relative="1" as="geometry">
            <mxPoint x="430" y="220" as="sourcePoint" />
            <mxPoint x="490" y="150" as="targetPoint" />
          </mxGeometry>
        </mxCell>
        <mxCell id="qbju_2fscivjp48ing6j-56" value="" style="endArrow=classic;html=1;rounded=0;" parent="qbju_2fscivjp48ing6j-43" edge="1">
          <mxGeometry width="50" height="50" relative="1" as="geometry">
            <mxPoint x="430" y="200" as="sourcePoint" />
            <mxPoint x="500" y="130" as="targetPoint" />
          </mxGeometry>
        </mxCell>
        <mxCell id="qbju_2fscivjp48ing6j-57" value="2.1:Enviar datos de Formulario" style="edgeLabel;html=1;align=center;verticalAlign=middle;resizable=0;points=[];rotation=-45;" parent="qbju_2fscivjp48ing6j-56" vertex="1" connectable="0">
          <mxGeometry x="-0.0222" y="3" relative="1" as="geometry">
            <mxPoint x="-12" y="-4" as="offset" />
          </mxGeometry>
        </mxCell>
        <mxCell id="qbju_2fscivjp48ing6j-58" value="" style="endArrow=none;html=1;rounded=0;" parent="qbju_2fscivjp48ing6j-43" target="qbju_2fscivjp48ing6j-50" edge="1">
          <mxGeometry width="50" height="50" relative="1" as="geometry">
            <mxPoint x="577.5999999999999" y="320" as="sourcePoint" />
            <mxPoint x="562.4000000000001" y="130" as="targetPoint" />
          </mxGeometry>
        </mxCell>
        <mxCell id="qbju_2fscivjp48ing6j-59" value="" style="endArrow=classic;html=1;rounded=0;" parent="qbju_2fscivjp48ing6j-43" edge="1">
          <mxGeometry width="50" height="50" relative="1" as="geometry">
            <mxPoint x="530" y="140" as="sourcePoint" />
            <mxPoint x="450" y="240" as="targetPoint" />
          </mxGeometry>
        </mxCell>
        <mxCell id="qbju_2fscivjp48ing6j-60" value="2.4:Enviar respuesta acerca del Inicio Sesion" style="edgeLabel;html=1;align=center;verticalAlign=middle;resizable=0;points=[];rotation=-60;" parent="qbju_2fscivjp48ing6j-59" vertex="1" connectable="0">
          <mxGeometry x="-0.0222" y="3" relative="1" as="geometry">
            <mxPoint x="7" y="19" as="offset" />
          </mxGeometry>
        </mxCell>
        <mxCell id="qbju_2fscivjp48ing6j-61" value="" style="endArrow=classic;html=1;rounded=0;" parent="qbju_2fscivjp48ing6j-43" edge="1">
          <mxGeometry width="50" height="50" relative="1" as="geometry">
            <mxPoint x="260" y="300" as="sourcePoint" />
            <mxPoint x="140" y="300" as="targetPoint" />
          </mxGeometry>
        </mxCell>
        <mxCell id="qbju_2fscivjp48ing6j-62" value="2.5:Notificar acerca del Inicio Sesion" style="edgeLabel;html=1;align=center;verticalAlign=middle;resizable=0;points=[];" parent="qbju_2fscivjp48ing6j-61" vertex="1" connectable="0">
          <mxGeometry x="-0.0222" y="3" relative="1" as="geometry">
            <mxPoint x="16" y="17" as="offset" />
          </mxGeometry>
        </mxCell>
        <mxCell id="qbju_2fscivjp48ing6j-63" value="" style="endArrow=classic;html=1;rounded=0;" parent="qbju_2fscivjp48ing6j-43" edge="1">
          <mxGeometry width="50" height="50" relative="1" as="geometry">
            <mxPoint x="590" y="130" as="sourcePoint" />
            <mxPoint x="600" y="300" as="targetPoint" />
            <Array as="points" />
          </mxGeometry>
        </mxCell>
        <mxCell id="qbju_2fscivjp48ing6j-64" value="2.2:Guarda o verifica datos" style="edgeLabel;html=1;align=center;verticalAlign=middle;resizable=0;points=[];rotation=80;" parent="qbju_2fscivjp48ing6j-63" vertex="1" connectable="0">
          <mxGeometry x="-0.0222" y="3" relative="1" as="geometry">
            <mxPoint x="14" y="-8" as="offset" />
          </mxGeometry>
        </mxCell>
        <mxCell id="qbju_2fscivjp48ing6j-65" value="" style="endArrow=classic;html=1;rounded=0;" parent="qbju_2fscivjp48ing6j-43" edge="1">
          <mxGeometry width="50" height="50" relative="1" as="geometry">
            <mxPoint x="660" y="290" as="sourcePoint" />
            <mxPoint x="620" y="130" as="targetPoint" />
            <Array as="points">
              <mxPoint x="650" y="230" />
            </Array>
          </mxGeometry>
        </mxCell>
        <mxCell id="qbju_2fscivjp48ing6j-66" value="2.3:Obtiene los datos" style="edgeLabel;html=1;align=center;verticalAlign=middle;resizable=0;points=[];rotation=75;" parent="qbju_2fscivjp48ing6j-65" vertex="1" connectable="0">
          <mxGeometry x="-0.0222" y="3" relative="1" as="geometry">
            <mxPoint x="17" y="-18" as="offset" />
          </mxGeometry>
        </mxCell>
        <mxCell id="qbju_2fscivjp48ing6j-67" value="Registrar Dispositivo" style="swimlane;whiteSpace=wrap;html=1;" parent="1" vertex="1">
          <mxGeometry x="56" y="490" width="716" height="440" as="geometry" />
        </mxCell>
        <mxCell id="qbju_2fscivjp48ing6j-11" value="Base de datos" style="rounded=0;whiteSpace=wrap;html=1;" parent="qbju_2fscivjp48ing6j-67" vertex="1">
          <mxGeometry x="544" y="340" width="120" height="60" as="geometry" />
        </mxCell>
        <mxCell id="qbju_2fscivjp48ing6j-10" value="Web" style="rounded=0;whiteSpace=wrap;html=1;" parent="qbju_2fscivjp48ing6j-67" vertex="1">
          <mxGeometry x="314" y="170" width="120" height="60" as="geometry" />
        </mxCell>
        <mxCell id="WxyQ4ZOC5UlArVyD0oZh-4" value="" style="endArrow=classic;html=1;rounded=0;" edge="1" parent="qbju_2fscivjp48ing6j-67">
          <mxGeometry width="50" height="50" relative="1" as="geometry">
            <mxPoint x="52.5" y="210" as="sourcePoint" />
            <mxPoint x="92.5" y="140" as="targetPoint" />
          </mxGeometry>
        </mxCell>
        <mxCell id="WxyQ4ZOC5UlArVyD0oZh-12" value="1:Encender dispositivo" style="edgeLabel;html=1;align=center;verticalAlign=middle;resizable=0;points=[];rotation=-60;" vertex="1" connectable="0" parent="WxyQ4ZOC5UlArVyD0oZh-4">
          <mxGeometry x="0.2782" relative="1" as="geometry">
            <mxPoint x="-26" y="5" as="offset" />
          </mxGeometry>
        </mxCell>
        <mxCell id="WxyQ4ZOC5UlArVyD0oZh-5" value="" style="endArrow=classic;html=1;rounded=0;" edge="1" parent="qbju_2fscivjp48ing6j-67">
          <mxGeometry width="50" height="50" relative="1" as="geometry">
            <mxPoint x="305" y="60" as="sourcePoint" />
            <mxPoint x="415" y="60" as="targetPoint" />
          </mxGeometry>
        </mxCell>
        <mxCell id="WxyQ4ZOC5UlArVyD0oZh-13" value="1.1:Aviso de activacion" style="edgeLabel;html=1;align=center;verticalAlign=middle;resizable=0;points=[];" vertex="1" connectable="0" parent="WxyQ4ZOC5UlArVyD0oZh-5">
          <mxGeometry x="0.0389" relative="1" as="geometry">
            <mxPoint x="-7" y="-10" as="offset" />
          </mxGeometry>
        </mxCell>
        <mxCell id="WxyQ4ZOC5UlArVyD0oZh-6" value="" style="endArrow=classic;html=1;rounded=0;" edge="1" parent="qbju_2fscivjp48ing6j-67">
          <mxGeometry width="50" height="50" relative="1" as="geometry">
            <mxPoint x="409" y="95" as="sourcePoint" />
            <mxPoint x="299" y="95" as="targetPoint" />
          </mxGeometry>
        </mxCell>
        <mxCell id="WxyQ4ZOC5UlArVyD0oZh-14" value="1.2:Enviar PIN de dispositivo" style="edgeLabel;html=1;align=center;verticalAlign=middle;resizable=0;points=[];" vertex="1" connectable="0" parent="WxyQ4ZOC5UlArVyD0oZh-6">
          <mxGeometry x="-0.1016" relative="1" as="geometry">
            <mxPoint y="-10" as="offset" />
          </mxGeometry>
        </mxCell>
        <mxCell id="qbju_2fscivjp48ing6j-7" value="Usuario" style="shape=umlActor;verticalLabelPosition=bottom;verticalAlign=top;html=1;outlineConnect=0;" parent="qbju_2fscivjp48ing6j-67" vertex="1">
          <mxGeometry y="270" width="30" height="60" as="geometry" />
        </mxCell>
        <mxCell id="WxyQ4ZOC5UlArVyD0oZh-8" value="" style="endArrow=classic;html=1;rounded=0;" edge="1" parent="qbju_2fscivjp48ing6j-67">
          <mxGeometry width="50" height="50" relative="1" as="geometry">
            <mxPoint x="144" y="130" as="sourcePoint" />
            <mxPoint x="104" y="200" as="targetPoint" />
          </mxGeometry>
        </mxCell>
        <mxCell id="WxyQ4ZOC5UlArVyD0oZh-15" value="1.3:Mostrar PIN" style="edgeLabel;html=1;align=center;verticalAlign=middle;resizable=0;points=[];rotation=-60;" vertex="1" connectable="0" parent="WxyQ4ZOC5UlArVyD0oZh-8">
          <mxGeometry x="-0.7165" y="1" relative="1" as="geometry">
            <mxPoint x="-25" y="19" as="offset" />
          </mxGeometry>
        </mxCell>
        <mxCell id="WxyQ4ZOC5UlArVyD0oZh-9" value="" style="endArrow=none;html=1;rounded=0;" edge="1" parent="qbju_2fscivjp48ing6j-67" source="qbju_2fscivjp48ing6j-7" target="qbju_2fscivjp48ing6j-10">
          <mxGeometry width="50" height="50" relative="1" as="geometry">
            <mxPoint x="135" y="310" as="sourcePoint" />
            <mxPoint x="185" y="260" as="targetPoint" />
          </mxGeometry>
        </mxCell>
        <mxCell id="qbju_2fscivjp48ing6j-8" value="API" style="rounded=0;whiteSpace=wrap;html=1;" parent="qbju_2fscivjp48ing6j-67" vertex="1">
          <mxGeometry x="564" y="35" width="120" height="60" as="geometry" />
        </mxCell>
        <mxCell id="WxyQ4ZOC5UlArVyD0oZh-10" value="" style="endArrow=none;html=1;rounded=0;entryX=0.309;entryY=0.986;entryDx=0;entryDy=0;entryPerimeter=0;" edge="1" parent="qbju_2fscivjp48ing6j-67" source="qbju_2fscivjp48ing6j-10" target="qbju_2fscivjp48ing6j-8">
          <mxGeometry width="50" height="50" relative="1" as="geometry">
            <mxPoint x="415" y="200" as="sourcePoint" />
            <mxPoint x="465" y="150" as="targetPoint" />
          </mxGeometry>
        </mxCell>
        <mxCell id="WxyQ4ZOC5UlArVyD0oZh-11" value="" style="endArrow=none;html=1;rounded=0;exitX=0.75;exitY=0;exitDx=0;exitDy=0;" edge="1" parent="qbju_2fscivjp48ing6j-67" source="qbju_2fscivjp48ing6j-11" target="qbju_2fscivjp48ing6j-8">
          <mxGeometry width="50" height="50" relative="1" as="geometry">
            <mxPoint x="586" y="310" as="sourcePoint" />
            <mxPoint x="579" y="115" as="targetPoint" />
          </mxGeometry>
        </mxCell>
        <mxCell id="WxyQ4ZOC5UlArVyD0oZh-16" value="" style="endArrow=classic;html=1;rounded=0;" edge="1" parent="qbju_2fscivjp48ing6j-67">
          <mxGeometry width="50" height="50" relative="1" as="geometry">
            <mxPoint x="144" y="240" as="sourcePoint" />
            <mxPoint x="244" y="220" as="targetPoint" />
          </mxGeometry>
        </mxCell>
        <mxCell id="WxyQ4ZOC5UlArVyD0oZh-22" value="2:Registrar dispositivo" style="edgeLabel;html=1;align=center;verticalAlign=middle;resizable=0;points=[];rotation=-10;" vertex="1" connectable="0" parent="WxyQ4ZOC5UlArVyD0oZh-16">
          <mxGeometry x="0.1182" y="-3" relative="1" as="geometry">
            <mxPoint x="-6" y="-17" as="offset" />
          </mxGeometry>
        </mxCell>
        <mxCell id="WxyQ4ZOC5UlArVyD0oZh-17" value="" style="endArrow=classic;html=1;rounded=0;" edge="1" parent="qbju_2fscivjp48ing6j-67">
          <mxGeometry width="50" height="50" relative="1" as="geometry">
            <mxPoint x="464" y="150" as="sourcePoint" />
            <mxPoint x="548" y="100" as="targetPoint" />
          </mxGeometry>
        </mxCell>
        <mxCell id="WxyQ4ZOC5UlArVyD0oZh-23" value="2.1:Enviar datos registrador" style="edgeLabel;html=1;align=center;verticalAlign=middle;resizable=0;points=[];rotation=-30;" vertex="1" connectable="0" parent="WxyQ4ZOC5UlArVyD0oZh-17">
          <mxGeometry x="0.0841" y="2" relative="1" as="geometry">
            <mxPoint x="-15" as="offset" />
          </mxGeometry>
        </mxCell>
        <mxCell id="WxyQ4ZOC5UlArVyD0oZh-18" value="" style="endArrow=classic;html=1;rounded=0;" edge="1" parent="qbju_2fscivjp48ing6j-67">
          <mxGeometry width="50" height="50" relative="1" as="geometry">
            <mxPoint x="644" y="160" as="sourcePoint" />
            <mxPoint x="644" y="260" as="targetPoint" />
          </mxGeometry>
        </mxCell>
        <mxCell id="WxyQ4ZOC5UlArVyD0oZh-24" value="2.2:Actualizar estado de dispositivo" style="edgeLabel;html=1;align=center;verticalAlign=middle;resizable=0;points=[];rotation=90;" vertex="1" connectable="0" parent="WxyQ4ZOC5UlArVyD0oZh-18">
          <mxGeometry x="-0.21" y="-1" relative="1" as="geometry">
            <mxPoint x="11" y="11" as="offset" />
          </mxGeometry>
        </mxCell>
        <mxCell id="WxyQ4ZOC5UlArVyD0oZh-19" value="" style="endArrow=classic;html=1;rounded=0;" edge="1" parent="qbju_2fscivjp48ing6j-67">
          <mxGeometry width="50" height="50" relative="1" as="geometry">
            <mxPoint x="594" y="290" as="sourcePoint" />
            <mxPoint x="594" y="180" as="targetPoint" />
          </mxGeometry>
        </mxCell>
        <mxCell id="WxyQ4ZOC5UlArVyD0oZh-25" value="2.3:Dar datos de activacion de dispositivo" style="edgeLabel;html=1;align=center;verticalAlign=middle;resizable=0;points=[];rotation=90;" vertex="1" connectable="0" parent="WxyQ4ZOC5UlArVyD0oZh-19">
          <mxGeometry x="-0.1727" relative="1" as="geometry">
            <mxPoint x="21" y="-19" as="offset" />
          </mxGeometry>
        </mxCell>
        <mxCell id="WxyQ4ZOC5UlArVyD0oZh-20" value="" style="endArrow=classic;html=1;rounded=0;" edge="1" parent="qbju_2fscivjp48ing6j-67">
          <mxGeometry width="50" height="50" relative="1" as="geometry">
            <mxPoint x="564" y="150" as="sourcePoint" />
            <mxPoint x="484" y="200" as="targetPoint" />
          </mxGeometry>
        </mxCell>
        <mxCell id="WxyQ4ZOC5UlArVyD0oZh-26" value="2.4:Actualizar estado de dispositivo" style="edgeLabel;html=1;align=center;verticalAlign=middle;resizable=0;points=[];rotation=-30;" vertex="1" connectable="0" parent="WxyQ4ZOC5UlArVyD0oZh-20">
          <mxGeometry x="-0.3431" y="-3" relative="1" as="geometry">
            <mxPoint x="-22" y="-4" as="offset" />
          </mxGeometry>
        </mxCell>
        <mxCell id="qbju_2fscivjp48ing6j-9" value="Dispositivo" style="rounded=0;whiteSpace=wrap;html=1;" parent="qbju_2fscivjp48ing6j-67" vertex="1">
          <mxGeometry x="80" y="40" width="120" height="60" as="geometry" />
        </mxCell>
        <mxCell id="WxyQ4ZOC5UlArVyD0oZh-3" value="" style="endArrow=none;html=1;rounded=0;" edge="1" parent="qbju_2fscivjp48ing6j-67" source="qbju_2fscivjp48ing6j-9" target="qbju_2fscivjp48ing6j-8">
          <mxGeometry width="50" height="50" relative="1" as="geometry">
            <mxPoint x="369" y="210" as="sourcePoint" />
            <mxPoint x="419" y="160" as="targetPoint" />
          </mxGeometry>
        </mxCell>
        <mxCell id="WxyQ4ZOC5UlArVyD0oZh-7" value="" style="endArrow=none;html=1;rounded=0;" edge="1" parent="qbju_2fscivjp48ing6j-67" source="qbju_2fscivjp48ing6j-7" target="qbju_2fscivjp48ing6j-9">
          <mxGeometry width="50" height="50" relative="1" as="geometry">
            <mxPoint x="109" y="260" as="sourcePoint" />
            <mxPoint x="159" y="210" as="targetPoint" />
          </mxGeometry>
        </mxCell>
        <mxCell id="WxyQ4ZOC5UlArVyD0oZh-21" value="" style="endArrow=classic;html=1;rounded=0;" edge="1" parent="qbju_2fscivjp48ing6j-67">
          <mxGeometry width="50" height="50" relative="1" as="geometry">
            <mxPoint x="250" y="270" as="sourcePoint" />
            <mxPoint x="150" y="300" as="targetPoint" />
          </mxGeometry>
        </mxCell>
        <mxCell id="WxyQ4ZOC5UlArVyD0oZh-27" value="&lt;font style=&quot;font-size: 10px;&quot;&gt;2.5:Mostar que el dispositivo esta encendido y registrado&lt;/font&gt;" style="edgeLabel;html=1;align=center;verticalAlign=middle;resizable=0;points=[];rotation=-15;" vertex="1" connectable="0" parent="WxyQ4ZOC5UlArVyD0oZh-21">
          <mxGeometry x="-0.2519" y="2" relative="1" as="geometry">
            <mxPoint x="-43" y="-9" as="offset" />
          </mxGeometry>
        </mxCell>
        <mxCell id="WxyQ4ZOC5UlArVyD0oZh-1" value="Ver datos dashboard" style="swimlane;whiteSpace=wrap;html=1;" vertex="1" parent="1">
          <mxGeometry x="880" y="510" width="710" height="460" as="geometry" />
        </mxCell>
        <mxCell id="qbju_2fscivjp48ing6j-16" value="Base de datos" style="rounded=0;whiteSpace=wrap;html=1;" parent="WxyQ4ZOC5UlArVyD0oZh-1" vertex="1">
          <mxGeometry x="520" y="320" width="120" height="60" as="geometry" />
        </mxCell>
        <mxCell id="qbju_2fscivjp48ing6j-15" value="Web" style="rounded=0;whiteSpace=wrap;html=1;" parent="WxyQ4ZOC5UlArVyD0oZh-1" vertex="1">
          <mxGeometry x="241" y="270" width="120" height="60" as="geometry" />
        </mxCell>
        <mxCell id="qbju_2fscivjp48ing6j-12" value="Usuario" style="shape=umlActor;verticalLabelPosition=bottom;verticalAlign=top;html=1;outlineConnect=0;" parent="WxyQ4ZOC5UlArVyD0oZh-1" vertex="1">
          <mxGeometry x="30" y="270" width="30" height="60" as="geometry" />
        </mxCell>
        <mxCell id="WxyQ4ZOC5UlArVyD0oZh-34" value="" style="endArrow=none;html=1;rounded=0;entryX=0;entryY=0.5;entryDx=0;entryDy=0;" edge="1" parent="WxyQ4ZOC5UlArVyD0oZh-1" source="qbju_2fscivjp48ing6j-12" target="qbju_2fscivjp48ing6j-15">
          <mxGeometry width="50" height="50" relative="1" as="geometry">
            <mxPoint x="100" y="270" as="sourcePoint" />
            <mxPoint x="150" y="220" as="targetPoint" />
          </mxGeometry>
        </mxCell>
        <mxCell id="qbju_2fscivjp48ing6j-13" value="API" style="rounded=0;whiteSpace=wrap;html=1;" parent="WxyQ4ZOC5UlArVyD0oZh-1" vertex="1">
          <mxGeometry x="480" y="50" width="120" height="60" as="geometry" />
        </mxCell>
        <mxCell id="WxyQ4ZOC5UlArVyD0oZh-37" value="" style="endArrow=none;html=1;rounded=0;" edge="1" parent="WxyQ4ZOC5UlArVyD0oZh-1" source="qbju_2fscivjp48ing6j-15" target="qbju_2fscivjp48ing6j-13">
          <mxGeometry width="50" height="50" relative="1" as="geometry">
            <mxPoint x="350" y="250" as="sourcePoint" />
            <mxPoint x="400" y="200" as="targetPoint" />
          </mxGeometry>
        </mxCell>
        <mxCell id="WxyQ4ZOC5UlArVyD0oZh-38" value="" style="endArrow=none;html=1;rounded=0;" edge="1" parent="WxyQ4ZOC5UlArVyD0oZh-1" source="qbju_2fscivjp48ing6j-16" target="qbju_2fscivjp48ing6j-13">
          <mxGeometry width="50" height="50" relative="1" as="geometry">
            <mxPoint x="480" y="330" as="sourcePoint" />
            <mxPoint x="530" y="280" as="targetPoint" />
          </mxGeometry>
        </mxCell>
        <mxCell id="WxyQ4ZOC5UlArVyD0oZh-39" value="" style="endArrow=classic;html=1;rounded=0;" edge="1" parent="WxyQ4ZOC5UlArVyD0oZh-1">
          <mxGeometry width="50" height="50" relative="1" as="geometry">
            <mxPoint x="100" y="280" as="sourcePoint" />
            <mxPoint x="200" y="280" as="targetPoint" />
          </mxGeometry>
        </mxCell>
        <mxCell id="WxyQ4ZOC5UlArVyD0oZh-41" value="1:Ver datos en dashboard" style="edgeLabel;html=1;align=center;verticalAlign=middle;resizable=0;points=[];" vertex="1" connectable="0" parent="WxyQ4ZOC5UlArVyD0oZh-39">
          <mxGeometry x="-0.0543" y="3" relative="1" as="geometry">
            <mxPoint x="3" y="-7" as="offset" />
          </mxGeometry>
        </mxCell>
        <mxCell id="WxyQ4ZOC5UlArVyD0oZh-40" value="" style="endArrow=classic;html=1;rounded=0;" edge="1" parent="WxyQ4ZOC5UlArVyD0oZh-1">
          <mxGeometry width="50" height="50" relative="1" as="geometry">
            <mxPoint x="310" y="70" as="sourcePoint" />
            <mxPoint x="400" y="70" as="targetPoint" />
          </mxGeometry>
        </mxCell>
        <mxCell id="WxyQ4ZOC5UlArVyD0oZh-43" value="&lt;span style=&quot;white-space: pre;&quot;&gt;&#x9;&lt;/span&gt;1.1:Enviar datos" style="edgeLabel;html=1;align=center;verticalAlign=middle;resizable=0;points=[];" vertex="1" connectable="0" parent="WxyQ4ZOC5UlArVyD0oZh-40">
          <mxGeometry x="-0.4058" relative="1" as="geometry">
            <mxPoint x="-7" y="-10" as="offset" />
          </mxGeometry>
        </mxCell>
        <mxCell id="qbju_2fscivjp48ing6j-14" value="Dispositivo" style="rounded=0;whiteSpace=wrap;html=1;" parent="WxyQ4ZOC5UlArVyD0oZh-1" vertex="1">
          <mxGeometry x="130" y="60" width="120" height="60" as="geometry" />
        </mxCell>
        <mxCell id="WxyQ4ZOC5UlArVyD0oZh-36" value="" style="endArrow=none;html=1;rounded=0;" edge="1" parent="WxyQ4ZOC5UlArVyD0oZh-1" source="qbju_2fscivjp48ing6j-14" target="qbju_2fscivjp48ing6j-13">
          <mxGeometry width="50" height="50" relative="1" as="geometry">
            <mxPoint x="260" y="210" as="sourcePoint" />
            <mxPoint x="310" y="160" as="targetPoint" />
          </mxGeometry>
        </mxCell>
        <mxCell id="WxyQ4ZOC5UlArVyD0oZh-44" value="" style="endArrow=classic;html=1;rounded=0;" edge="1" parent="WxyQ4ZOC5UlArVyD0oZh-1">
          <mxGeometry width="50" height="50" relative="1" as="geometry">
            <mxPoint x="370" y="220" as="sourcePoint" />
            <mxPoint x="460" y="130" as="targetPoint" />
          </mxGeometry>
        </mxCell>
        <mxCell id="WxyQ4ZOC5UlArVyD0oZh-45" value="1.3:Pedir datos que mostrar en dashboard" style="edgeLabel;html=1;align=center;verticalAlign=middle;resizable=0;points=[];rotation=-45;" vertex="1" connectable="0" parent="WxyQ4ZOC5UlArVyD0oZh-44">
          <mxGeometry x="0.5852" y="4" relative="1" as="geometry">
            <mxPoint x="-39" y="24" as="offset" />
          </mxGeometry>
        </mxCell>
        <mxCell id="WxyQ4ZOC5UlArVyD0oZh-46" value="" style="endArrow=classic;html=1;rounded=0;" edge="1" parent="WxyQ4ZOC5UlArVyD0oZh-1">
          <mxGeometry width="50" height="50" relative="1" as="geometry">
            <mxPoint x="570" y="175" as="sourcePoint" />
            <mxPoint x="590" y="285" as="targetPoint" />
          </mxGeometry>
        </mxCell>
        <mxCell id="WxyQ4ZOC5UlArVyD0oZh-47" value="1.2:Enviar datos ordenados cada x tienpo" style="edgeLabel;html=1;align=center;verticalAlign=middle;resizable=0;points=[];rotation=75;" vertex="1" connectable="0" parent="WxyQ4ZOC5UlArVyD0oZh-46">
          <mxGeometry x="-0.3458" relative="1" as="geometry">
            <mxPoint x="13" y="4" as="offset" />
          </mxGeometry>
        </mxCell>
        <mxCell id="WxyQ4ZOC5UlArVyD0oZh-48" value="" style="endArrow=classic;html=1;rounded=0;" edge="1" parent="WxyQ4ZOC5UlArVyD0oZh-1">
          <mxGeometry width="50" height="50" relative="1" as="geometry">
            <mxPoint x="600" y="170" as="sourcePoint" />
            <mxPoint x="630" y="280" as="targetPoint" />
          </mxGeometry>
        </mxCell>
        <mxCell id="WxyQ4ZOC5UlArVyD0oZh-49" value="1.4:Pedir datos para mostrar" style="edgeLabel;html=1;align=center;verticalAlign=middle;resizable=0;points=[];rotation=75;" vertex="1" connectable="0" parent="WxyQ4ZOC5UlArVyD0oZh-48">
          <mxGeometry x="0.3826" relative="1" as="geometry">
            <mxPoint x="9" y="-26" as="offset" />
          </mxGeometry>
        </mxCell>
        <mxCell id="WxyQ4ZOC5UlArVyD0oZh-50" value="" style="endArrow=classic;html=1;rounded=0;" edge="1" parent="WxyQ4ZOC5UlArVyD0oZh-1">
          <mxGeometry width="50" height="50" relative="1" as="geometry">
            <mxPoint x="540" y="280" as="sourcePoint" />
            <mxPoint x="520" y="160" as="targetPoint" />
          </mxGeometry>
        </mxCell>
        <mxCell id="WxyQ4ZOC5UlArVyD0oZh-51" value="1.5:Enviar datos para mostrar" style="edgeLabel;html=1;align=center;verticalAlign=middle;resizable=0;points=[];rotation=80;" vertex="1" connectable="0" parent="WxyQ4ZOC5UlArVyD0oZh-50">
          <mxGeometry x="0.4122" y="-2" relative="1" as="geometry">
            <mxPoint x="15" y="23" as="offset" />
          </mxGeometry>
        </mxCell>
        <mxCell id="WxyQ4ZOC5UlArVyD0oZh-52" value="" style="endArrow=classic;html=1;rounded=0;" edge="1" parent="WxyQ4ZOC5UlArVyD0oZh-1">
          <mxGeometry width="50" height="50" relative="1" as="geometry">
            <mxPoint x="490" y="160" as="sourcePoint" />
            <mxPoint x="410" y="240" as="targetPoint" />
          </mxGeometry>
        </mxCell>
        <mxCell id="WxyQ4ZOC5UlArVyD0oZh-53" value="1.6:Enviar datos que mostrar en dashboard" style="edgeLabel;html=1;align=center;verticalAlign=middle;resizable=0;points=[];rotation=-45;" vertex="1" connectable="0" parent="WxyQ4ZOC5UlArVyD0oZh-52">
          <mxGeometry x="-0.2124" relative="1" as="geometry">
            <mxPoint x="-17" as="offset" />
          </mxGeometry>
        </mxCell>
        <mxCell id="WxyQ4ZOC5UlArVyD0oZh-55" value="" style="endArrow=classic;html=1;rounded=0;" edge="1" parent="WxyQ4ZOC5UlArVyD0oZh-1">
          <mxGeometry width="50" height="50" relative="1" as="geometry">
            <mxPoint x="210" y="328.89" as="sourcePoint" />
            <mxPoint x="110" y="328.89" as="targetPoint" />
          </mxGeometry>
        </mxCell>
        <mxCell id="WxyQ4ZOC5UlArVyD0oZh-56" value="1.7:Mostrar datos dashboard" style="edgeLabel;html=1;align=center;verticalAlign=middle;resizable=0;points=[];" vertex="1" connectable="0" parent="WxyQ4ZOC5UlArVyD0oZh-55">
          <mxGeometry x="-0.3733" y="-4" relative="1" as="geometry">
            <mxPoint x="-19" y="-15" as="offset" />
          </mxGeometry>
        </mxCell>
        <mxCell id="WxyQ4ZOC5UlArVyD0oZh-57" value="Ver datos de Dispositivos" style="swimlane;whiteSpace=wrap;html=1;" vertex="1" parent="1">
          <mxGeometry x="886" y="1010" width="710" height="460" as="geometry" />
        </mxCell>
        <mxCell id="WxyQ4ZOC5UlArVyD0oZh-58" value="Base de datos" style="rounded=0;whiteSpace=wrap;html=1;" vertex="1" parent="WxyQ4ZOC5UlArVyD0oZh-57">
          <mxGeometry x="544" y="360" width="120" height="60" as="geometry" />
        </mxCell>
        <mxCell id="WxyQ4ZOC5UlArVyD0oZh-59" value="Web" style="rounded=0;whiteSpace=wrap;html=1;" vertex="1" parent="WxyQ4ZOC5UlArVyD0oZh-57">
          <mxGeometry x="241" y="270" width="120" height="60" as="geometry" />
        </mxCell>
        <mxCell id="WxyQ4ZOC5UlArVyD0oZh-60" value="Usuario" style="shape=umlActor;verticalLabelPosition=bottom;verticalAlign=top;html=1;outlineConnect=0;" vertex="1" parent="WxyQ4ZOC5UlArVyD0oZh-57">
          <mxGeometry x="30" y="270" width="30" height="60" as="geometry" />
        </mxCell>
        <mxCell id="WxyQ4ZOC5UlArVyD0oZh-61" value="" style="endArrow=none;html=1;rounded=0;entryX=0;entryY=0.5;entryDx=0;entryDy=0;" edge="1" parent="WxyQ4ZOC5UlArVyD0oZh-57" source="WxyQ4ZOC5UlArVyD0oZh-60" target="WxyQ4ZOC5UlArVyD0oZh-59">
          <mxGeometry width="50" height="50" relative="1" as="geometry">
            <mxPoint x="100" y="270" as="sourcePoint" />
            <mxPoint x="150" y="220" as="targetPoint" />
          </mxGeometry>
        </mxCell>
        <mxCell id="WxyQ4ZOC5UlArVyD0oZh-62" value="API" style="rounded=0;whiteSpace=wrap;html=1;" vertex="1" parent="WxyQ4ZOC5UlArVyD0oZh-57">
          <mxGeometry x="480" y="50" width="120" height="60" as="geometry" />
        </mxCell>
        <mxCell id="WxyQ4ZOC5UlArVyD0oZh-63" value="" style="endArrow=none;html=1;rounded=0;" edge="1" parent="WxyQ4ZOC5UlArVyD0oZh-57" source="WxyQ4ZOC5UlArVyD0oZh-59" target="WxyQ4ZOC5UlArVyD0oZh-62">
          <mxGeometry width="50" height="50" relative="1" as="geometry">
            <mxPoint x="350" y="250" as="sourcePoint" />
            <mxPoint x="400" y="200" as="targetPoint" />
          </mxGeometry>
        </mxCell>
        <mxCell id="WxyQ4ZOC5UlArVyD0oZh-64" value="" style="endArrow=none;html=1;rounded=0;" edge="1" parent="WxyQ4ZOC5UlArVyD0oZh-57" source="WxyQ4ZOC5UlArVyD0oZh-58" target="WxyQ4ZOC5UlArVyD0oZh-62">
          <mxGeometry width="50" height="50" relative="1" as="geometry">
            <mxPoint x="480" y="330" as="sourcePoint" />
            <mxPoint x="530" y="280" as="targetPoint" />
          </mxGeometry>
        </mxCell>
        <mxCell id="WxyQ4ZOC5UlArVyD0oZh-65" value="" style="endArrow=classic;html=1;rounded=0;" edge="1" parent="WxyQ4ZOC5UlArVyD0oZh-57">
          <mxGeometry width="50" height="50" relative="1" as="geometry">
            <mxPoint x="100" y="280" as="sourcePoint" />
            <mxPoint x="200" y="280" as="targetPoint" />
          </mxGeometry>
        </mxCell>
        <mxCell id="WxyQ4ZOC5UlArVyD0oZh-66" value="1:Ver datos de dispositivos" style="edgeLabel;html=1;align=center;verticalAlign=middle;resizable=0;points=[];" vertex="1" connectable="0" parent="WxyQ4ZOC5UlArVyD0oZh-65">
          <mxGeometry x="-0.0543" y="3" relative="1" as="geometry">
            <mxPoint x="3" y="-7" as="offset" />
          </mxGeometry>
        </mxCell>
        <mxCell id="WxyQ4ZOC5UlArVyD0oZh-67" value="" style="endArrow=classic;html=1;rounded=0;" edge="1" parent="WxyQ4ZOC5UlArVyD0oZh-57">
          <mxGeometry width="50" height="50" relative="1" as="geometry">
            <mxPoint x="310" y="70" as="sourcePoint" />
            <mxPoint x="400" y="70" as="targetPoint" />
          </mxGeometry>
        </mxCell>
        <mxCell id="WxyQ4ZOC5UlArVyD0oZh-68" value="&lt;span style=&quot;white-space: pre;&quot;&gt;&#x9;&lt;/span&gt;1.1:Enviar datos de dispositivos" style="edgeLabel;html=1;align=center;verticalAlign=middle;resizable=0;points=[];" vertex="1" connectable="0" parent="WxyQ4ZOC5UlArVyD0oZh-67">
          <mxGeometry x="-0.4058" relative="1" as="geometry">
            <mxPoint x="-7" y="-10" as="offset" />
          </mxGeometry>
        </mxCell>
        <mxCell id="WxyQ4ZOC5UlArVyD0oZh-69" value="Dispositivo" style="rounded=0;whiteSpace=wrap;html=1;" vertex="1" parent="WxyQ4ZOC5UlArVyD0oZh-57">
          <mxGeometry x="130" y="60" width="120" height="60" as="geometry" />
        </mxCell>
        <mxCell id="WxyQ4ZOC5UlArVyD0oZh-70" value="" style="endArrow=none;html=1;rounded=0;" edge="1" parent="WxyQ4ZOC5UlArVyD0oZh-57" source="WxyQ4ZOC5UlArVyD0oZh-69" target="WxyQ4ZOC5UlArVyD0oZh-62">
          <mxGeometry width="50" height="50" relative="1" as="geometry">
            <mxPoint x="260" y="210" as="sourcePoint" />
            <mxPoint x="310" y="160" as="targetPoint" />
          </mxGeometry>
        </mxCell>
        <mxCell id="WxyQ4ZOC5UlArVyD0oZh-71" value="" style="endArrow=classic;html=1;rounded=0;" edge="1" parent="WxyQ4ZOC5UlArVyD0oZh-57">
          <mxGeometry width="50" height="50" relative="1" as="geometry">
            <mxPoint x="370" y="220" as="sourcePoint" />
            <mxPoint x="460" y="130" as="targetPoint" />
          </mxGeometry>
        </mxCell>
        <mxCell id="WxyQ4ZOC5UlArVyD0oZh-72" value="1.3:Pedir datos que mostrar de dispositivo" style="edgeLabel;html=1;align=center;verticalAlign=middle;resizable=0;points=[];rotation=-45;" vertex="1" connectable="0" parent="WxyQ4ZOC5UlArVyD0oZh-71">
          <mxGeometry x="0.5852" y="4" relative="1" as="geometry">
            <mxPoint x="-39" y="24" as="offset" />
          </mxGeometry>
        </mxCell>
        <mxCell id="WxyQ4ZOC5UlArVyD0oZh-73" value="" style="endArrow=classic;html=1;rounded=0;" edge="1" parent="WxyQ4ZOC5UlArVyD0oZh-57">
          <mxGeometry width="50" height="50" relative="1" as="geometry">
            <mxPoint x="574" y="175" as="sourcePoint" />
            <mxPoint x="594" y="285" as="targetPoint" />
          </mxGeometry>
        </mxCell>
        <mxCell id="WxyQ4ZOC5UlArVyD0oZh-74" value="1.2:Enviar datos ordenados cada x tienpo" style="edgeLabel;html=1;align=center;verticalAlign=middle;resizable=0;points=[];rotation=75;" vertex="1" connectable="0" parent="WxyQ4ZOC5UlArVyD0oZh-73">
          <mxGeometry x="-0.3458" relative="1" as="geometry">
            <mxPoint x="13" y="4" as="offset" />
          </mxGeometry>
        </mxCell>
        <mxCell id="WxyQ4ZOC5UlArVyD0oZh-75" value="" style="endArrow=classic;html=1;rounded=0;" edge="1" parent="WxyQ4ZOC5UlArVyD0oZh-57">
          <mxGeometry width="50" height="50" relative="1" as="geometry">
            <mxPoint x="600" y="170" as="sourcePoint" />
            <mxPoint x="630" y="280" as="targetPoint" />
          </mxGeometry>
        </mxCell>
        <mxCell id="WxyQ4ZOC5UlArVyD0oZh-76" value="1.4:Pedir datos de dispositivo para mostrar" style="edgeLabel;html=1;align=center;verticalAlign=middle;resizable=0;points=[];rotation=75;" vertex="1" connectable="0" parent="WxyQ4ZOC5UlArVyD0oZh-75">
          <mxGeometry x="0.3826" relative="1" as="geometry">
            <mxPoint x="9" y="-26" as="offset" />
          </mxGeometry>
        </mxCell>
        <mxCell id="WxyQ4ZOC5UlArVyD0oZh-77" value="" style="endArrow=classic;html=1;rounded=0;" edge="1" parent="WxyQ4ZOC5UlArVyD0oZh-57">
          <mxGeometry width="50" height="50" relative="1" as="geometry">
            <mxPoint x="550" y="300" as="sourcePoint" />
            <mxPoint x="530" y="180" as="targetPoint" />
          </mxGeometry>
        </mxCell>
        <mxCell id="WxyQ4ZOC5UlArVyD0oZh-78" value="1.5:Enviar datos de dispositivo&amp;nbsp; para mostrar" style="edgeLabel;html=1;align=center;verticalAlign=middle;resizable=0;points=[];rotation=80;" vertex="1" connectable="0" parent="WxyQ4ZOC5UlArVyD0oZh-77">
          <mxGeometry x="0.4122" y="-2" relative="1" as="geometry">
            <mxPoint x="15" y="23" as="offset" />
          </mxGeometry>
        </mxCell>
        <mxCell id="WxyQ4ZOC5UlArVyD0oZh-79" value="" style="endArrow=classic;html=1;rounded=0;" edge="1" parent="WxyQ4ZOC5UlArVyD0oZh-57">
          <mxGeometry width="50" height="50" relative="1" as="geometry">
            <mxPoint x="490" y="160" as="sourcePoint" />
            <mxPoint x="410" y="240" as="targetPoint" />
          </mxGeometry>
        </mxCell>
        <mxCell id="WxyQ4ZOC5UlArVyD0oZh-80" value="1.6:Enviar datos de dispositivo que mostrar&amp;nbsp;" style="edgeLabel;html=1;align=center;verticalAlign=middle;resizable=0;points=[];rotation=-45;" vertex="1" connectable="0" parent="WxyQ4ZOC5UlArVyD0oZh-79">
          <mxGeometry x="-0.2124" relative="1" as="geometry">
            <mxPoint x="-17" as="offset" />
          </mxGeometry>
        </mxCell>
        <mxCell id="WxyQ4ZOC5UlArVyD0oZh-81" value="" style="endArrow=classic;html=1;rounded=0;" edge="1" parent="WxyQ4ZOC5UlArVyD0oZh-57">
          <mxGeometry width="50" height="50" relative="1" as="geometry">
            <mxPoint x="210" y="328.89" as="sourcePoint" />
            <mxPoint x="110" y="328.89" as="targetPoint" />
          </mxGeometry>
        </mxCell>
        <mxCell id="WxyQ4ZOC5UlArVyD0oZh-82" value="1.7:Mostrar datos de dispositivos" style="edgeLabel;html=1;align=center;verticalAlign=middle;resizable=0;points=[];" vertex="1" connectable="0" parent="WxyQ4ZOC5UlArVyD0oZh-81">
          <mxGeometry x="-0.3733" y="-4" relative="1" as="geometry">
            <mxPoint x="-19" y="-15" as="offset" />
          </mxGeometry>
        </mxCell>
      </root>
    </mxGraphModel>
  </diagram>
</mxfile>
